<?xml version="1.0" encoding="UTF-8"?>
<svg width="2266px" height="656px" viewBox="0 0 2266 656" version="1.1" xmlns="http://www.w3.org/2000/svg" xmlns:xlink="http://www.w3.org/1999/xlink">
    <!-- Generator: Sketch 57.1 (83088) - https://sketch.com -->
    <title>Slice</title>
    <desc>Created with Sketch.</desc>
    <g id="Page-1" stroke="none" stroke-width="1" fill="none" fill-rule="evenodd">
        <g id="SVG-Layer" transform="translate(-469.000000, 67.000000)" fill-rule="nonzero">
            <g id="ahbhbgeb">
                <g id="SvgjsG1008" transform="translate(517.000000, 0.738416)" fill="#2075D7">
                    <ellipse id="Oval" cx="245.79355" cy="245.107713" rx="245.79355" ry="245.107713"></ellipse>
                </g>
                <g id="SvgjsG1009" transform="translate(633.086312, 133.956795)" fill="#FFFFFF">
                    <path d="M236.289756,85.255337 C224.384723,85.255337 214.46122,93.7758539 212.268326,105.015348 L194.133362,92.6218693 C192.944444,91.8051221 191.290526,92.1107436 190.46621,93.306883 C189.641893,94.5082917 189.943086,96.1470553 191.15314,96.9690718 L209.763672,109.68925 L191.15314,122.409428 C189.943086,123.231444 189.641893,124.870208 190.46621,126.066347 C190.978766,126.814593 191.803082,127.215063 192.643251,127.215063 C193.161091,127.215063 193.678931,127.067521 194.133362,126.751361 L212.268326,114.357882 C214.46122,125.602646 224.384723,134.112624 236.289756,134.112624 C249.806434,134.112624 260.802606,123.157674 260.802606,109.68398 C260.802606,96.220826 249.806434,85.255337 236.289756,85.255337 Z M236.289756,128.853826 C225.695175,128.853826 217.07684,120.259539 217.07684,109.694519 C217.07684,99.1242304 225.695175,90.5246734 236.289756,90.5246734 C246.894906,90.5246734 255.518526,99.1242304 255.518526,109.694519 C255.518526,120.259539 246.894906,128.853826 236.289756,128.853826 Z" id="Shape"></path>
                    <path d="M236.289756,170.154885 C224.384723,170.154885 214.46122,178.670132 212.268326,189.909627 L194.128078,177.521417 C192.933876,176.699401 191.290526,176.999753 190.460926,178.206431 C189.636609,179.40784 189.937802,181.046603 191.147856,181.86335 L211.945997,196.064212 C212.733325,208.837083 223.290918,219.017441 236.289756,219.017441 C249.806434,219.017441 260.802606,208.051952 260.802606,194.57299 C260.802606,181.109835 249.806434,170.154885 236.289756,170.154885 Z M236.289756,213.753374 C225.695175,213.753374 217.07684,205.153817 217.07684,194.578259 C217.07684,184.01324 225.695175,175.418952 236.289756,175.418952 C246.894906,175.418952 255.518526,184.01324 255.518526,194.578259 C255.518526,205.153817 246.894906,213.753374 236.289756,213.753374 Z" id="Shape"></path>
                    <path d="M70.4541726,93.306883 C69.6245719,92.1107436 67.9812229,91.8051221 66.7817366,92.6218693 L48.6467722,105.010079 C46.4485946,93.7705846 36.5250914,85.255337 24.6200579,85.255337 C11.108664,85.255337 0.117776425,96.2155567 0.117776425,109.68925 C0.117776425,123.162943 11.108664,134.123163 24.6200579,134.123163 C36.5250914,134.123163 46.4485946,125.607915 48.6467722,114.368421 L66.7817366,126.75663 C67.2361675,127.072791 67.7592915,127.220332 68.2718473,127.220332 C69.1120161,127.220332 69.9416168,126.819862 70.4541726,126.071617 C71.2784891,124.870208 70.9720125,123.231444 69.7672421,122.414697 L51.1514263,109.68925 L69.761958,96.9690718 C70.9667284,96.1470553 71.273205,94.5082917 70.4541726,93.306883 Z M24.6200579,128.853826 C14.0254764,128.853826 5.40185697,120.254269 5.40185697,109.68925 C5.40185697,99.1242304 14.0201923,90.5246734 24.6200579,90.5246734 C35.2199235,90.5246734 43.8382589,99.118961 43.8382589,109.68925 C43.8329748,120.254269 35.2146394,128.853826 24.6200579,128.853826 Z" id="Shape"></path>
                    <path d="M86.8084019,84.7705581 C87.3209577,84.7705581 87.8440816,84.6230166 88.2985126,84.3121258 L106.433477,71.923916 C108.631655,83.1634105 118.549874,91.6786581 130.454907,91.6786581 C142.365225,91.6786581 152.288728,83.1634105 154.486905,71.9186466 L172.62187,84.3121258 C173.076301,84.6230166 173.599425,84.7705581 174.111981,84.7705581 C174.952149,84.7705581 175.776466,84.3700885 176.289022,83.6271121 C177.113338,82.4257034 176.812146,80.7869397 175.602091,79.9649233 L156.99156,67.2447452 L175.602091,54.5245672 C176.812146,53.7025507 177.113338,52.0637871 176.289022,50.8623784 C175.464705,49.6609697 173.821356,49.3606176 172.62187,50.1773647 L154.486905,62.5708439 C152.294012,51.32608 142.365225,42.8108324 130.454907,42.8108324 C117.461353,42.8108324 106.898476,52.985921 106.111148,65.753523 L85.3130071,79.9649233 C84.1082367,80.7869397 83.80176,82.4257034 84.6260766,83.6271121 C85.1386324,84.3648192 85.968233,84.7705581 86.8084019,84.7705581 Z M130.454907,48.0748995 C141.054773,48.0748995 149.678392,56.6744565 149.678392,67.2447452 C149.678392,77.8097647 141.054773,86.4093217 130.454907,86.4093217 C119.860326,86.4093217 111.24199,77.815034 111.24199,67.2447452 C111.24199,56.6691871 119.860326,48.0748995 130.454907,48.0748995 Z" id="Shape"></path>
                    <path d="M192.648535,42.3155148 C193.166375,42.3155148 193.684215,42.1679734 194.138646,41.8570825 L212.27361,29.4636034 C214.466504,40.7083672 224.390007,49.2236148 236.29504,49.2236148 C249.811719,49.2236148 260.80789,38.2581258 260.80789,24.7844327 C260.80789,11.3107395 249.811719,0.350519855 236.29504,0.350519855 C223.296202,0.350519855 212.738609,10.5256084 211.951281,23.2932105 L191.158424,37.5046107 C189.94837,38.3266272 189.647177,39.9653908 190.471494,41.1667995 C190.978766,41.9150452 191.803082,42.3155148 192.648535,42.3155148 Z M236.289756,5.62512558 C246.894906,5.62512558 255.518526,14.2194132 255.518526,24.789702 C255.518526,35.3599908 246.894906,43.9595478 236.289756,43.9595478 C225.695175,43.9595478 217.07684,35.3599908 217.07684,24.789702 C217.082124,14.2194132 225.695175,5.62512558 236.289756,5.62512558 Z" id="Shape"></path>
                    <path d="M156.99156,152.149562 L175.602091,139.429384 C176.812146,138.607368 177.113338,136.968604 176.289022,135.772465 C175.464705,134.576326 173.821356,134.265435 172.62187,135.087451 L154.486905,147.48093 C152.294012,136.236167 142.365225,127.71038 130.454907,127.71038 C118.555158,127.71038 108.62637,136.230897 106.433477,147.48093 L88.2985126,135.087451 C87.0884581,134.260165 85.4503932,134.565787 84.6260766,135.772465 C83.80176,136.973874 84.1082367,138.612637 85.3130071,139.429384 L106.111148,153.640785 C106.898476,166.408387 117.456069,176.578206 130.454907,176.578206 C142.365225,176.578206 152.294012,168.062958 154.486905,156.823464 L172.627154,169.211674 C173.081585,169.527834 173.604709,169.675375 174.117265,169.675375 C174.957434,169.675375 175.78175,169.274906 176.294306,168.52666 C177.118622,167.325251 176.81743,165.686488 175.607375,164.86974 L156.99156,152.149562 Z M130.454907,171.3036 C119.860326,171.3036 111.24199,162.709313 111.24199,152.144293 C111.24199,141.568735 119.860326,132.969178 130.454907,132.969178 C141.054773,132.969178 149.678392,141.568735 149.678392,152.144293 C149.678392,162.714582 141.054773,171.3036 130.454907,171.3036 Z" id="Shape"></path>
                </g>
            </g>
        </g>
        <text id="PRAGRA" font-family="OpenSans, Open Sans" font-size="394" font-weight="normal" letter-spacing="6.43871" fill="#51555D">
            <tspan x="607.217561" y="445">PRAGRA</tspan>
        </text>
    </g>
</svg>